<?xml version="1.0" standalone="no"?>
<!DOCTYPE svg PUBLIC "-//W3C//DTD SVG 20010904//EN"
 "http://www.w3.org/TR/2001/REC-SVG-20010904/DTD/svg10.dtd">
<svg version="1.0" xmlns="http://www.w3.org/2000/svg"
 width="373.000000pt" height="373.000000pt" viewBox="0 0 373.000000 373.000000"
 preserveAspectRatio="xMidYMid meet">
<metadata>
Created by potrace 1.14, written by Peter Selinger 2001-2017
</metadata>
<g transform="translate(0.000000,373.000000) scale(0.100000,-0.100000)"
fill="#000000" stroke="none">
<path d="M1177 3052 c-372 -372 -677 -682 -677 -687 0 -6 97 -107 215 -225
l216 -215 20 25 c82 102 122 187 146 309 26 133 -6 299 -82 425 -19 32 -35 61
-35 65 0 3 88 -82 195 -189 l195 -195 460 460 c253 253 460 464 460 470 0 10
-420 435 -430 435 -3 0 -310 -305 -683 -678z"/>
<path d="M2140 3021 c-115 -115 -210 -213 -210 -217 0 -5 307 -316 683 -692
l682 -682 218 218 217 217 -683 683 c-375 375 -685 682 -689 682 -4 0 -102
-94 -218 -209z"/>
<path d="M1644 2526 l-217 -218 194 -194 c183 -183 216 -222 148 -173 -97 69
-274 116 -393 104 -125 -12 -264 -70 -361 -150 l-30 -25 440 -440 440 -440
212 212 c117 117 213 217 213 223 0 5 -87 97 -192 204 -106 107 -179 186 -163
176 211 -132 432 -150 635 -54 70 33 160 97 160 114 0 5 -195 205 -434 444
l-434 434 -218 -217z"/>
<path d="M210 2085 l-215 -215 688 -688 687 -687 217 218 218 217 -685 685
c-377 377 -687 685 -690 685 -3 0 -102 -97 -220 -215z"/>
<path d="M2755 1758 c-87 -102 -143 -284 -132 -430 6 -74 44 -210 71 -253 60
-97 47 -88 -137 95 -108 107 -198 192 -201 190 -3 -3 -212 -212 -466 -464
l-461 -460 213 -213 c117 -117 217 -213 223 -213 6 0 316 306 690 680 l680
680 -215 215 c-118 118 -218 215 -222 215 -3 0 -23 -19 -43 -42z"/>
</g>
</svg>
